<svg xmlns="http://www.w3.org/2000/svg" width="201.251" height="77" viewBox="0 0 201.251 77">
  <g id="Font2Csharp" transform="translate(251.251 -183)">
    <g id="TFont" transform="translate(-1301.587 -33)">
      <path id="Subtraction_1" data-name="Subtraction 1" d="M1268.926,109.028h-52.5A5.436,5.436,0,0,1,1211,103.6V38.431A5.436,5.436,0,0,1,1216.43,33h38.014l19.912,19.912V103.6A5.437,5.437,0,0,1,1268.926,109.028ZM1237.65,93.263a5.024,5.024,0,0,0-2.189.49,3.717,3.717,0,0,0-1.62,1.508,4.1,4.1,0,0,0-.6,2.092,4.741,4.741,0,0,0,.457,1.978,3.45,3.45,0,0,0,1.532,1.59,5.071,5.071,0,0,0,2.476.592,4.364,4.364,0,0,0,3.235-1.2,3.955,3.955,0,0,0,1.189-2.871,4.08,4.08,0,0,0-1.193-2.967A4.425,4.425,0,0,0,1237.65,93.263Zm7.921,2.4,0,0,5.149,5.811h.75v-6.1a2.279,2.279,0,0,1,.094-.741.841.841,0,0,1,.355-.419,1.04,1.04,0,0,1,.56-.164V93.4h-2.854v.651c.727,0,1.1.438,1.1,1.3v2.912l-4.354-4.864h-2.683v.651c.754,0,1.137.409,1.137,1.213v4.055a2.739,2.739,0,0,1-.077.765.82.82,0,0,1-.357.427,1.181,1.181,0,0,1-.662.185v.651h2.983V100.7a1.282,1.282,0,0,1-.817-.252,1.448,1.448,0,0,1-.319-1.131v-3.65ZM1255.6,100.7v.651h4.388V100.7h-.205a1.029,1.029,0,0,1-.776-.214,1.181,1.181,0,0,1-.185-.759V94.113h.686a1.553,1.553,0,0,1,1.084.319,2.392,2.392,0,0,1,.527,1.233h.661V93.4h-7.951v2.262h.661a2.494,2.494,0,0,1,.231-.911,1.045,1.045,0,0,1,.472-.513,2.259,2.259,0,0,1,.879-.129h.668v5.613a1.223,1.223,0,0,1-.178.753,1,1,0,0,1-.777.22Zm-30.332,0v.651h4.277V100.7h-.164a1.044,1.044,0,0,1-.779-.214,1.171,1.171,0,0,1-.187-.759V97.558h.615a.823.823,0,0,1,.639.2,1.493,1.493,0,0,1,.205.841h.656V95.871h-.656a1.39,1.39,0,0,1-.214.782.816.816,0,0,1-.618.191h-.626V94.1h1.283a2.123,2.123,0,0,1,.75.1,1.13,1.13,0,0,1,.474.434,2.907,2.907,0,0,1,.375.873h.661l-.052-2.1h-6.662v.639h.14a1.009,1.009,0,0,1,.764.214,1.183,1.183,0,0,1,.184.759v4.711a1.223,1.223,0,0,1-.178.753.993.993,0,0,1-.771.22Zm8.547-19.951v2.6h17.554v-2.6h-.82c-1.571,0-2.616-.288-3.106-.856a4.741,4.741,0,0,1-.738-3.035V54.4h2.742a6.213,6.213,0,0,1,4.335,1.277c.9.848,1.611,2.508,2.11,4.934h2.649V51.568h-31.805v9.047h2.649a9.9,9.9,0,0,1,.926-3.644,4.159,4.159,0,0,1,1.886-2.051,8.98,8.98,0,0,1,3.515-.516h2.672V76.857a4.877,4.877,0,0,1-.715,3.011c-.475.583-1.52.879-3.106.879Zm3.839,20a1.613,1.613,0,0,1-1.465-.812,5.357,5.357,0,0,1-.492-2.645,4.813,4.813,0,0,1,.492-2.479,1.821,1.821,0,0,1,3.027.059,5.24,5.24,0,0,1,.483,2.537,4.8,4.8,0,0,1-.516,2.6A1.749,1.749,0,0,1,1237.65,100.746Z" transform="translate(-160.664 183)" fill="#fff"/>
      <path id="Path_11" data-name="Path 11" d="M0,0,20.274,20.274H3.686A3.686,3.686,0,0,1,0,16.588Z" transform="translate(1093.418 216)" fill="#b3b3b3"/>
    </g>
    <g id="C_" data-name="C#" transform="translate(-1163.692 -33)">
      <path id="Subtraction_2" data-name="Subtraction 2" d="M1215.513,111.028h-52.5a5.437,5.437,0,0,1-5.431-5.431V40.431A5.437,5.437,0,0,1,1163.018,35h38.013l19.912,19.912V105.6A5.437,5.437,0,0,1,1215.513,111.028ZM1185.8,56.4a18.035,18.035,0,0,0-6.684,1.2,15.727,15.727,0,0,0-5.392,3.6,17.6,17.6,0,0,0-4.094,6.677,27.493,27.493,0,0,0-1.365,9.011,27.385,27.385,0,0,0,1.2,8.411,17.839,17.839,0,0,0,3.6,6.407,15.347,15.347,0,0,0,5.7,4.035,19.771,19.771,0,0,0,7.488,1.345,18.26,18.26,0,0,0,6.166-1,14.518,14.518,0,0,0,4.947-2.986,17.519,17.519,0,0,0,5.392-10.336h-8.042a12.208,12.208,0,0,1-2.057,4.508,7.888,7.888,0,0,1-6.513,2.8,8.576,8.576,0,0,1-6.868-3.256c-1.793-2.161-2.7-5.456-2.7-9.8s.86-7.741,2.557-10.111a8.173,8.173,0,0,1,6.988-3.573c2.887,0,5.1.851,6.566,2.531a11.03,11.03,0,0,1,2.03,4.219h8.121a13.984,13.984,0,0,0-2.689-7.251,14.159,14.159,0,0,0-5.853-4.825A20.707,20.707,0,0,0,1185.8,56.4Zm21.332,24h2.548l-.952,4.284a.144.144,0,0,0,0,.137.2.2,0,0,0,.169.059h1.764c.121,0,.137-.042.176-.145l.02-.051.979-4.284h2.353c.109,0,.167-.048.167-.139V78.188c0-.14-.028-.168-.167-.168h-1.876l.616-2.8h2.687c.107,0,.168-.023.168-.14V73.036c0-.14-.086-.168-.224-.168h-2.128l.9-3.864a.138.138,0,0,0-.014-.122.153.153,0,0,0-.125-.046h-1.82c-.084,0-.112.029-.14.14l-.868,3.892h-2.548l.868-3.836a.182.182,0,0,0-.019-.152.15.15,0,0,0-.121-.044h-1.764c-.134,0-.194.023-.223.168l-.869,3.864h-2.492c-.107,0-.14.026-.14.113v2.128c0,.112.056.112.14.112h1.96l-.644,2.8h-2.66c-.112,0-.168.026-.168.168V80.2c0,.166.054.2.168.2H1205l-1.008,4.312a.153.153,0,0,0,.013.128c.024.029.069.04.156.04h1.792c.113,0,.141-.058.168-.14l1.008-4.34Zm3.052-2.38h-2.548l.616-2.8h2.577l-.644,2.8Z" transform="translate(-107.251 181)" fill="#fff"/>
      <path id="Path_11-2" data-name="Path 11" d="M0,0,20.274,20.274H3.686A3.686,3.686,0,0,1,0,16.588Z" transform="translate(1093.418 216)" fill="#b3b3b3"/>
    </g>
    <text id="_2" data-name="2" transform="translate(-167.105 245)" fill="#fff" font-size="64" font-family="Helvetica-Bold, Helvetica" font-weight="700" letter-spacing="0.06em"><tspan x="0" y="0">2</tspan></text>
  </g>
</svg>
