<svg xmlns="http://www.w3.org/2000/svg" xmlns:xlink="http://www.w3.org/1999/xlink" width="268" height="160" viewBox="0 0 268 160">
  <defs>
    <linearGradient id="linear-gradient" x1="0.5" x2="0.5" y2="1" gradientUnits="objectBoundingBox">
      <stop offset="0" stop-color="#472db3"/>
      <stop offset="1" stop-color="#7455ae"/>
    </linearGradient>
  </defs>
  <g id="iconslogo" transform="translate(305 -660)">
    <rect id="Rectangle_35" data-name="Rectangle 35" width="268" height="160" rx="15" transform="translate(-305 660)" fill="url(#linear-gradient)"/>
    <g id="box-svgrepo-com" transform="translate(-275.304 675.551)">
      <g id="Group_43" data-name="Group 43" transform="translate(10.776 34.407)">
        <g id="Group_42" data-name="Group 42" transform="translate(0 0)">
          <path id="Path_45" data-name="Path 45" d="M135.837,292.571V303.8h18.449v-11.23Zm16.042,8.823H138.243v-6.417h13.636v6.417Z" transform="translate(-135.837 -292.571)" fill="#d5d5fd"/>
        </g>
      </g>
      <g id="Group_45" data-name="Group 45" transform="translate(0 10.449)">
        <g id="Group_44" data-name="Group 44" transform="translate(0 0)">
          <path id="Path_46" data-name="Path 46" d="M0,10.449V20.662H2.449V50.449h35.1V20.662H40V10.449ZM35.1,47.9H4.9V20.662H35.1Zm2.449-29.787H2.449V13h35.1Z" transform="translate(0 -10.449)" fill="#d5d5fd"/>
        </g>
      </g>
      <g id="Group_47" data-name="Group 47" transform="translate(10.776 23.389)">
        <g id="Group_46" data-name="Group 46" transform="translate(0 0)">
          <path id="Path_47" data-name="Path 47" d="M150.676,167.184h-11.23a3.61,3.61,0,1,0,0,7.219h11.23a3.61,3.61,0,0,0,0-7.219Zm0,4.813h-11.23a1.2,1.2,0,1,1,0-2.406h11.23a1.2,1.2,0,0,1,0,2.406Z" transform="translate(-135.837 -167.184)" fill="#d5d5fd"/>
        </g>
      </g>
    </g>
    <g id="house-svgrepo-com" transform="translate(-204.672 680.41)">
      <g id="Group_48" data-name="Group 48" transform="translate(8.508 0)">
        <path id="Path_48" data-name="Path 48" d="M49.939,90.914,30.491,71.4a1.63,1.63,0,0,0-2.244,0L8.8,90.914a1.021,1.021,0,0,0,.859,1.709h4.417v14.361a1.989,1.989,0,0,0,2.092,1.872h8.1V99.3a1.416,1.416,0,0,1,1.486-1.329h7.227A1.416,1.416,0,0,1,34.464,99.3v9.568h8.1a1.989,1.989,0,0,0,2.092-1.872V92.623H49.07A1.021,1.021,0,0,0,49.939,90.914Z" transform="translate(-8.508 -63.276)" fill="#d6d6fd"/>
        <path id="Path_49" data-name="Path 49" d="M270.862,5.289l-2.434,2.434a14.65,14.65,0,0,0-20.7,0l-2.434-2.434A18.1,18.1,0,0,1,270.862,5.289ZM258.077,9.9a8.134,8.134,0,0,1,5.787,2.4L266.3,9.865a11.64,11.64,0,0,0-16.441,0L252.29,12.3A8.089,8.089,0,0,1,258.077,9.9Zm3.515,4.662a4.569,4.569,0,0,0-7.02,0l3.5,3.5Z" transform="translate(-222.605 0)" fill="#d6d6fd"/>
      </g>
    </g>
    <g id="save-svgrepo-com" transform="translate(-199.88 755)">
      <rect id="Rectangle_36" data-name="Rectangle 36" width="6.067" height="6.067" transform="translate(27.443)" fill="#d6d6fd"/>
      <path id="Path_50" data-name="Path 50" d="M35.7,0V8.211H20.175V0H10V39.45H45.88V0Zm3.035,33.559H16.962V25.883H38.739Z" fill="#d6d6fd"/>
    </g>
    <g id="apple-svgrepo-com" transform="translate(-305.503 748.558)">
      <path id="Path_51" data-name="Path 51" d="M142.266,19.589a23.63,23.63,0,0,1,1.853,4.643,12.549,12.549,0,0,0,2.337.224,12.294,12.294,0,0,0,1.53-.1,23.046,23.046,0,0,0-5.746-8.593c-.5-.422-1.256-1.242-1.974-1.178-1,.088-.922,1.138-.428,1.7A17.591,17.591,0,0,1,142.266,19.589Z" transform="translate(-96.257 -12.915)" fill="#d5d5fd"/>
      <path id="Path_52" data-name="Path 52" d="M204.628,8.863c1.787,1.939,3.692.875,5.313-.659,2.02-1.909,4.762-6.948,4.223-7.62s-7.2-1.211-9.509,1.046A4.73,4.73,0,0,0,204.628,8.863Z" transform="translate(-152.424 0)" fill="#d5d5fd"/>
      <path id="Path_53" data-name="Path 53" d="M65.255,97.056a6.3,6.3,0,0,0-3.51-1.14,13.15,13.15,0,0,0-4.452,1.12,19.549,19.549,0,0,1-7.094,1.58,19.546,19.546,0,0,1-7.094-1.58,13.155,13.155,0,0,0-4.452-1.12,6.3,6.3,0,0,0-3.51,1.14c-6.236,4.028-4.356,12.492-2.983,18.672l.13.584a28.125,28.125,0,0,0,4.264,10.225c2.064,2.839,4.422,4.279,7.008,4.279a8.066,8.066,0,0,0,2.7-.5,5.751,5.751,0,0,0,1.152-.6,4.378,4.378,0,0,1,2.478-.86H50.5a4.378,4.378,0,0,1,2.478.86,5.751,5.751,0,0,0,1.152.6,8.063,8.063,0,0,0,2.7.5h0c2.587,0,4.944-1.439,7.008-4.278a28.13,28.13,0,0,0,4.264-10.226l.13-.584C69.612,109.548,71.492,101.084,65.255,97.056Z" transform="translate(0 -84.935)" fill="#d5d5fd"/>
    </g>
    <g id="papers-svgrepo-com" transform="translate(-113.969 755)">
      <g id="Group_49" data-name="Group 49" transform="translate(5.224)">
        <path id="Path_54" data-name="Path 54" d="M5.224,0V39.45H43.869V0ZM23.741,37.034H7.639V2.415H31.792V28.983H23.741v8.051ZM26.157,31.4h3.928l-3.928,3.928Zm10.466,5.636H27.864l6.343-6.343V2.415h2.415V37.034Zm4.831,0H39.038V2.415h2.415Z" transform="translate(-5.224)" fill="#fff"/>
      </g>
    </g>
    <g id="pencil-svgrepo-com" transform="translate(-109.467 685)">
      <g id="Group_50" data-name="Group 50">
        <path id="Path_55" data-name="Path 55" d="M32.549,0,4.355,28.194,0,41.259,13.065,36.9,41.259,8.71Zm-8.71,12.194,1.742,1.742L8.916,30.6,7.174,28.859ZM5.764,36.741,4.518,35.495,5.97,31.14l4.149,4.149ZM12.4,34.085l-1.742-1.742L27.323,15.678l1.742,1.742ZM30.807,15.678l-5.226-5.226L27.323,8.71l5.226,5.226Zm-1.742-8.71,3.484-3.484L37.775,8.71l-3.484,3.484Z" fill="#fff"/>
      </g>
    </g>
  </g>
</svg>
